Grandma's Boy (1922) Silent with English Intertitles, B & W

Director: Fred C. Newmeyer

One of Lloyd’s personal favorites of his films, Grandma’s Boy is a beautiful tale of self-discovery, with a bounty of comic overtones. Sonny is a self-professed coward who balks at the sight of the town tramp (Sutherland). Armed with a lucky charm given to him by his grandmother (Townsend), he defeats the tramp and the town bully (Stevenson), learning a very valuable lesson about himself in the process.

A standout contributor to the art of silent film comedy, Harold Lloyd (1893-1971) offers new generations a body of film work that is as fresh and entertaining as in its day. His roots were simple – born in rural Nebraska, product of a broken home, and initially destined for the legitimate stage – yet by the 1920s, Lloyd was, both at the box office and in the polls, the most popular comic actor in the world.

His appeal was simple, yet legendary: through his Glass Character, which formed the basis of roles from 1917-1947, Lloyd struck gold with a screen persona that forged new ground. The Boy, as he was most often called, had one trademark – lens-less horn-rimmed glasses – yet was able to reach audiences as no contemporary could. He is regarded as the man who most greatly influenced eyeglass-wearing in America, and this single facet of Lloyd inspired youth worldwide. His screen normalcy – in look and demeanor – allowed moviegoers to relate to the Glass Character no matter what his label. Rich or poor, cowardly or flip, from film to film, Lloyd was a different Boy, and was able to create a cinematic legacy that remains both diverse and uniformly thrilling.

Harold Lloyd might just be the funniest actor you’ve never seen – a silent screen comedian so often placed in the shadow of Chaplin and Keaton -- but he continues to shine in some of the most enduring short- and feature-length comedies ever offered to audiences.
 
Media Info:
General
Complete name                    : J:\Seeding\Grandma's Boy (1922)[DVDRip][big_dad_e™]\Grandma's Boy (1922)[DVDRip][big_dad_e™].avi
Format                           : AVI
Format/Info                      : Audio Video Interleave
Format profile                   : OpenDML
File size                        : 1.25 GiB
Duration                         : 1h 1mn
Overall bit rate                 : 2 914 Kbps
Writing application              : Lavf51.12.1

Video
ID                               : 0
Format                           : xvid
Codec ID                         : xvid
Duration                         : 1h 1mn
Bit rate                         : 2 582 Kbps
Width                            : 720 pixels
Height                           : 540 pixels
Display aspect ratio             : 4:3
Frame rate                       : 23.976 fps
Bits/(Pixel*Frame)               : 0.277
Stream size                      : 1.11 GiB (89%)

Audio
ID                               : 1
Format                           : MPEG Audio
Format version                   : Version 1
Format profile                   : Layer 3
Mode                             : Joint stereo
Codec ID                         : 55
Codec ID/Hint                    : MP3
Duration                         : 1h 1mn
Bit rate mode                    : Constant
Bit rate                         : 320 Kbps
Channel(s)                       : 2 channels
Sampling rate                    : 44.1 KHz
Stream size                      : 140 MiB (11%)
Alignment                        : Aligned on interleaves
Interleave, duration             : 26 ms (0.63 video frame)
Writing library                  : LAME3.97UURB

File Scan:
Malwarebytes' Anti-Malware 1.50.1.1100
www.malwarebytes.org

Database version: 5739
2/11/2011 1:31:31 AM
mbam-log-2011-02-11 (01-31-31).txt

Scan type: Quick scan
Objects scanned: 5
Time elapsed: 20 second(s)

Memory Processes Infected: 0
Memory Modules Infected: 0
Registry Keys Infected: 0
Registry Values Infected: 0
Registry Data Items Infected: 0
Folders Infected: 0
Files Infected: 0

Memory Processes Infected:
(No malicious items detected)

Memory Modules Infected:
(No malicious items detected)

Registry Keys Infected:
(No malicious items detected)

Registry Values Infected:
(No malicious items detected)

Registry Data Items Infected:
(No malicious items detected)

Folders Infected:
(No malicious items detected)

Files Infected:
(No malicious items detected)

When using TPB please read these important notes:
  
01- Anti-malware apps may warn about keygens, patches, cracks, etc., because of 
    their capabilities, (generating codes, etc.). Sometimes they're added to 
    the virus/spyware database and will be detected as malware. If you don't trust
    the keygens, patches, cracks, etc., don't use them. 
    
02- Before running .exe-files, keygens, patches, cracks, etc., always check first 
    if they can be unpacked. Often some third party added a virus to the 
    original file, repacked it and uploaded it again.

03- Letting anti-malware apps send scan results to their companies can cause
    keygens, patches, cracks, etc., to be added to their virus-database.

04- Firewalls which are set to automatically determine connections will allow 
    apps & malware!. Avoid this by manually configuring your firewall.

05- Usually (new) torrents with many downloads and seeders in a brief period is
    suspicious! Torrents with the Skull & Crossbones icon are trusted.

06- Some people use multiple accounts and post fake comments 
    and/or files trying to spread confusion. They seldom seriously
    comment or have any torrents, or a just a few to look passable.

07- Clicking on unknown links can cause malware to be installed on your machine.
  
08- In general often there are more fake and negative comments than reliable and
    positive comments.

09- In some countries uploading/downloading copyright protected material is 
    forbidden, but showing some appreciation to reliable up-loaders is not.

10- Posting fake and negative comments or fake/infected uploads on TPB can result
    in getting banned from TPB!

Requests?  Find me on SuprBay. http://forum.suprbay.org
 

For reporting bad or suspicious torrents:  
http://forum.suprbay.org/forumdisplay.php?fid=29

For more of my torrents: 
https://thepiratebay.org/user/big_dad_e/  (Secured)

All torrents scanned with:
Norton Anti-virus
Malwarebytes' Anti-malware
 
http://www.pirate-party.us/

ALWAYS SEED & THANKS SEEDERS!